<svg xmlns="http://www.w3.org/2000/svg" width="315.416" height="83.016" viewBox="0 0 315.416 83.016">
  <g>
    <path d="M5.594,81.9C1.118,81.9,0,80.668,0,78.541c0-4.81,8.728-1.9,8.728-7.833V11.187C8.728,5.256,0,8.167,0,3.354,0,1.23,1.567,0,3.8,0H20.364C25.957,0,30.88,6.489,64,54.823h.224V11.187c0-5.931-6.714-3.02-6.714-7.833C57.508,1.23,58.628,0,62.655,0H74.068c4.027,0,5.146,1.23,5.146,3.354,0,4.813-6.713,1.9-6.713,7.833V75.856c0,5.482-.223,7.16-5.034,7.16-2.462,0-3.581-.111-4.923-2.013L17.342,17.23h-.336V70.708c0,5.931,7.609,3.023,7.609,7.833,0,2.127-1.12,3.357-5.146,3.357Z" fill="#000"></path>
    <path d="M114.155,27.3c9.4,0,21.706,4.364,21.6,15.551-.113,15.105-25.511,17.79-37.147,18.462a15.65,15.65,0,0,0,15.665,13.65c6.6-.335,10.964-2.463,15.662-6.712,1.344-1.233,2.126-2.351,4.141-2.351a2.352,2.352,0,0,1,2.574,2.574c0,5.594-12.308,14.544-25.846,14.544C95.358,83.016,82.38,72.5,82.268,56.5,82.38,39.158,93.232,27.3,114.155,27.3ZM97.708,55.269c5.819-.558,23.5-2.8,23.5-13.984,0-5.036-3.021-7.944-8.056-7.944C102.407,33.341,97.484,44.082,97.708,55.269Z" fill="#000"></path>
    <path d="M188.39,81.9c-5.593,0-6.042-1.9-6.713-7.049A25.933,25.933,0,0,1,163.1,83.016c-12.98,0-18.35-8.278-18.35-18.459V41.62c0-7.944-5.146-4.476-5.146-8.728,0-3.58,13.426-5.594,15.1-5.594,2.685,0,4.586,1.344,4.586,8.279V62.1c0,10.18,2.461,12.643,8.951,12.643,6.266,0,12.531-4.03,12.531-10.292V41.62c0-7.944-5.146-4.476-5.146-8.728,0-3.58,13.426-5.594,15.1-5.594,2.685,0,4.588,1.344,4.588,8.279V71.046c0,6.154,5.7,4.81,5.7,7.832,0,1.679-.783,3.02-4.139,3.02Z" fill="#000"></path>
    <path d="M209.736,81.9c-2.908,0-4.139-1.118-4.139-3.02,0-4.252,5.257-.783,5.257-8.17v-22.6c0-12.865-7.5-8.055-7.5-12.865,0-3.246,3.356-3.918,6.489-5.482C212.2,28.642,216,27.3,217.569,27.3c4.921,0,5.705,9.512,6.041,13.092h.224C226.407,34.236,232,27.3,238.715,27.3c4.587,0,7.5,3.469,7.5,7.833,0,3.02-1.344,6.266-5.259,6.266-1.678,0-4.475-1.791-6.713-1.791-4.588,0-8.839,7.719-8.839,16.112v14.99c0,7.387,5.259,3.918,5.259,8.17,0,1.9-1.231,3.02-4.139,3.02Z" fill="#000"></path>
    <path d="M276.923,83.016c-16.784,0-30.321-11.3-30.321-27.859S260.139,27.3,276.923,27.3s30.319,11.3,30.319,27.859S293.705,83.016,276.923,83.016Zm0-6.711c8.391,0,14.88-7.161,14.88-21.148s-6.489-21.144-14.88-21.144-14.881,7.161-14.881,21.144S268.531,76.305,276.923,76.305Z" fill="#000"></path>
    <g>
      <path d="M309.633,29.815a5.782,5.782,0,1,1,5.783-5.781A5.788,5.788,0,0,1,309.633,29.815Zm0-10.419a4.638,4.638,0,1,0,4.639,4.638A4.642,4.642,0,0,0,309.633,19.4Z" fill="#000"></path>
      <path d="M309.457,24.662h-.591V26.9h-1.137V21.091H310a1.743,1.743,0,0,1,1.851,1.787,1.641,1.641,0,0,1-1.237,1.645l1.246,2.376H310.6Zm.326-.975c.583,0,.912-.318.912-.8s-.329-.811-.912-.811h-.917v1.612Z" fill="#000"></path>
    </g>
  </g>
</svg>